# xmcd CD database file
#
# Track frame offsets:
#	150
#	18535
#	34536
#	52726
#	73797
#	83687
#	101463
#	109031
#	126386
#	140952
#	160357
#	175745
#
# Disc length: 2649 seconds
#
# Revision: 3
# Processed by: cddbd v1.5.2PL0 Copyright (c) Steve Scherf et al.
# Submitted via: CDex 1.51
#
DISCID=9e0a570c
DTITLE=Morcheeba - Fragments of Freedom
DYEAR=2000
DGENRE=Electronica
TTITLE0=World Looking In
TTITLE1=Rome Wasn't Built in a Day
TTITLE2=Love Is Rare
TTITLE3=Let It Go
TTITLE4=A Well Deserved Break
TTITLE5=Love Sweet Love (ft. Mr Complex)
TTITLE6=In the Hands of the Gods (ft. Biz Markie)
TTITLE7=Shallow End
TTITLE8=Be Yourself
TTITLE9=Coming Down Gently
TTITLE10=Good Girl Bown (ft. Bahamadia)
TTITLE11=Fragments of Freedom
EXTD=YEAR: 2000
EXTT0=
EXTT1=
EXTT2=
EXTT3=
EXTT4=
EXTT5=
EXTT6=
EXTT7=
EXTT8=
EXTT9=
EXTT10=
EXTT11=
PLAYORDER=
